# xmcd
#
# Track frame offsets:
#	150
#	14884
#	28648
#	43907
#	58799
#	73591
#	86930
#	102929
#	119373
#	134497
#	153553
#	167930
#	184082
#	201227
#
# Disc length: 2849 seconds
#
# Revision: 0
# Processed by: cddbd v1.5.1PL2 Copyright (c) Steve Scherf et al.
# Submitted via: dBpowerAMP V4.0
#
DISCID=d60b1f0e
DTITLE=Vários - Homenagem aos Imortais
DYEAR=1900
DGENRE=
TTITLE0=Teixeirinha - Tordilho negro
TTITLE1=José Mendes - Pára Pedro
TTITLE2=Sidnei Lima - Ela deu tudo
TTITLE3=Teixeirinha - Coração de luto
TTITLE4=José Mendes - Picaço velho
TTITLE5=Sidnei Lima - Mata o véio
TTITLE6=Teixeirinha - Velho casarão
TTITLE7=José Mendes - Roubo da gaita velha
TTITLE8=Sidnei Lima - Festa da cenoura
TTITLE9=Teixeirinha - Tropeiro velho
TTITLE10=José Mendes - Não aperta Aparício
TTITLE11=Sidnei Lima - Lamento de um bugre
TTITLE12=Teixeirinha - Querência amada
TTITLE13=José Mendes - Mulher feia
EXTD=
EXTT0=
EXTT1=
EXTT2=
EXTT3=
EXTT4=
EXTT5=
EXTT6=
EXTT7=
EXTT8=
EXTT9=
EXTT10=
EXTT11=
EXTT12=
EXTT13=
PLAYORDER=
